<?xml version="1.0" encoding="UTF-8" standalone="no"?><!DOCTYPE svg PUBLIC "-//W3C//DTD SVG 1.1//EN" "http://www.w3.org/Graphics/SVG/1.1/DTD/svg11.dtd"><svg width="100%" height="100%" viewBox="0 0 24 24" version="1.1" xmlns="http://www.w3.org/2000/svg" xmlns:xlink="http://www.w3.org/1999/xlink" xml:space="preserve" xmlns:serif="http://www.serif.com/" style="fill-rule:evenodd;clip-rule:evenodd;stroke-miterlimit:5;"><path d="M24,2.4c-0,-1.325 -1.075,-2.4 -2.4,-2.4l-19.2,-0c-1.325,-0 -2.4,1.075 -2.4,2.4l-0,19.2c-0,1.325 1.075,2.4 2.4,2.4l19.2,0c1.325,0 2.4,-1.075 2.4,-2.4l-0,-19.2Z" style="fill:url(#_Linear1);"/><path d="M24,2.4l-0,19.2c-0,1.325 -1.075,2.4 -2.4,2.4l-19.2,0c-1.325,0 -2.4,-1.075 -2.4,-2.4l-0,-19.2c-0,-1.325 1.075,-2.4 2.4,-2.4l19.2,-0c1.325,-0 2.4,1.075 2.4,2.4Zm-1,0c-0,-0.773 -0.627,-1.4 -1.4,-1.4l-19.2,-0c-0.773,-0 -1.4,0.627 -1.4,1.4l-0,19.2c-0,0.773 0.627,1.4 1.4,1.4l19.2,0c0.773,0 1.4,-0.627 1.4,-1.4l-0,-19.2Z" style="fill:#c3c3c3;"/><path d="M12,0l0,24" style="fill:none;stroke:#c3c3c3;stroke-width:1px;"/><path d="M-0,12l24,0" style="fill:none;stroke:#c3c3c3;stroke-width:1px;"/><defs><linearGradient id="_Linear1" x1="0" y1="0" x2="1" y2="0" gradientUnits="userSpaceOnUse" gradientTransform="matrix(24,24,-24,24,0,-2.77556e-17)"><stop offset="0" style="stop-color:#009cd6;stop-opacity:1"/><stop offset="0.52" style="stop-color:#019cd6;stop-opacity:1"/><stop offset="0.75" style="stop-color:#96dcf5;stop-opacity:1"/><stop offset="1" style="stop-color:#c6f0ff;stop-opacity:1"/></linearGradient></defs></svg>