<?xml version="1.0" encoding="UTF-8" standalone="no"?><!DOCTYPE svg PUBLIC "-//W3C//DTD SVG 1.1//EN" "http://www.w3.org/Graphics/SVG/1.1/DTD/svg11.dtd"><svg width="100%" height="100%" viewBox="0 0 24 24" version="1.1" xmlns="http://www.w3.org/2000/svg" xmlns:xlink="http://www.w3.org/1999/xlink" xml:space="preserve" xmlns:serif="http://www.serif.com/" style="fill-rule:evenodd;clip-rule:evenodd;stroke-miterlimit:5;"><path d="M24,5.158c0,-0.397 -0.323,-0.72 -0.72,-0.72l-22.56,-0c-0.397,-0 -0.72,0.323 -0.72,0.72l-0,12.961c-0,0.398 0.323,0.72 0.72,0.72l22.56,0c0.397,0 0.72,-0.322 0.72,-0.72l0,-12.961Z" style="fill:url(#_Linear1);"/><path d="M24,5.158l0,12.961c0,0.398 -0.323,0.72 -0.72,0.72l-22.56,0c-0.397,0 -0.72,-0.322 -0.72,-0.72l-0,-12.961c-0,-0.397 0.323,-0.72 0.72,-0.72l22.56,-0c0.397,-0 0.72,0.323 0.72,0.72Zm-23,0.28l0,12.401l22,0l-0,-12.401l-22,-0Z" style="fill:#c3c3c3;"/><path d="M0.462,4.913l11.538,7.087l11.538,-7.087" style="fill:none;stroke:#c3c3c3;stroke-width:1px;"/><defs><linearGradient id="_Linear1" x1="0" y1="0" x2="1" y2="0" gradientUnits="userSpaceOnUse" gradientTransform="matrix(8.81833e-16,14.4014,-14.4014,8.81833e-16,12,4.43787)"><stop offset="0" style="stop-color:#fff;stop-opacity:1"/><stop offset="0.37" style="stop-color:#f3f3f3;stop-opacity:1"/><stop offset="0.81" style="stop-color:#d7d7d7;stop-opacity:1"/><stop offset="1" style="stop-color:#cdcdcd;stop-opacity:1"/></linearGradient></defs></svg>